<svg
  width="40px"
  height="40px"
  viewBox="0 0 40 40"
  xmlns="http://www.w3.org/2000/svg"
  className="w-6 h-6 relative"
  preserveAspectRatio="xMidYMid meet"
>
  <path
    d="M10 7C10 6.44772 10.4477 6 11 6C11.5523 6 12 6.44772 12 7V10H15C15.5523 10 16 10.4477 16 11C16 11.5523 15.5523 12 15 12H12V15C12 15.5523 11.5523 16 11 16C10.4477 16 10 15.5523 10 15V12H7C6.44771 12 6 11.5523 6 11C6 10.4477 6.44772 10 7 10H10V7Z"
    fill="#20232B"
  />
  <path
    fill-rule="evenodd"
    clip-rule="evenodd"
    d="M22 11C22 17.0751 17.0751 22 11 22C4.92487 22 0 17.0751 0 11C0 4.92487 4.92487 0 11 0C17.0751 0 22 4.92487 22 11ZM2.00683 11C2.00683 15.9668 6.03321 19.9932 11 19.9932C15.9668 19.9932 19.9932 15.9668 19.9932 11C19.9932 6.03321 15.9668 2.00683 11 2.00683C6.03321 2.00683 2.00683 6.03321 2.00683 11Z"
    fill="#20232B"
  />
</svg>