<svg
  width="34"
  height="34"
  viewBox="0 0 34 34"
  xmlns="http://www.w3.org/2000/svg"
  className="w-[30px] h-[30px] relative"
  preserveAspectRatio="xMidYMid meet"
>
  <g opacity="0.3">
  <path
    d="M19.0918 13.435C19.4823 13.0445 20.1155 13.0445 20.506 13.435C20.8965 13.8256 20.8965 14.4587 20.506 14.8492L18.3847 16.9706L20.506 19.0919C20.8965 19.4824 20.8965 20.1156 20.506 20.5061C20.1155 20.8966 19.4823 20.8966 19.0918 20.5061L16.9705 18.3848L14.8491 20.5061C14.4586 20.8966 13.8254 20.8966 13.4349 20.5061C13.0444 20.1156 13.0444 19.4824 13.4349 19.0919L15.5562 16.9706L13.4349 14.8492C13.0444 14.4587 13.0444 13.8256 13.4349 13.435C13.8254 13.0445 14.4586 13.0445 14.8491 13.435L16.9705 15.5563L19.0918 13.435Z"
    fill="white"
  />
  <path
    fill-rule="evenodd"
    clip-rule="evenodd"
    d="M24.7486 24.7487C20.4529 29.0445 13.4881 29.0445 9.19228 24.7487C4.89652 20.453 4.89652 13.4882 9.19228 9.19239C13.4881 4.89662 20.4529 4.89662 24.7486 9.19239C29.0444 13.4882 29.0444 20.453 24.7486 24.7487ZM10.6113 10.6114C7.09928 14.1235 7.09928 19.8176 10.6113 23.3297C14.1234 26.8417 19.8175 26.8417 23.3296 23.3297C26.8416 19.8176 26.8416 14.1235 23.3296 10.6114C19.8175 7.09938 14.1234 7.09938 10.6113 10.6114Z"
    fill="white"
  />
  </g>
</svg>